<svg xmlns="http://www.w3.org/2000/svg" width="1200" height="630" viewBox="0 0 1200 630" role="img" aria-labelledby="title desc">
  <title id="title">Microsoft 365 Message Center Archive</title>
  <desc id="desc">Searchable archive of Microsoft 365 Message Center and Roadmap posts.</desc>
  <defs>
    <linearGradient id="bg" x1="0" x2="1" y1="0" y2="1">
      <stop offset="0" stop-color="#020617"/>
      <stop offset="0.55" stop-color="#0f172a"/>
      <stop offset="1" stop-color="#1e3a8a"/>
    </linearGradient>
    <radialGradient id="glow" cx="75%" cy="22%" r="60%">
      <stop offset="0" stop-color="#38bdf8" stop-opacity="0.42"/>
      <stop offset="1" stop-color="#38bdf8" stop-opacity="0"/>
    </radialGradient>
  </defs>
  <rect width="1200" height="630" fill="url(#bg)"/>
  <rect width="1200" height="630" fill="url(#glow)"/>
  <path d="M80 520C214 418 310 482 430 390C530 314 626 124 780 160C892 186 932 320 1120 222" fill="none" stroke="#60a5fa" stroke-width="3" stroke-opacity="0.45"/>
  <path d="M80 556C230 480 318 536 456 450C582 372 618 232 770 250C910 268 970 414 1120 342" fill="none" stroke="#22d3ee" stroke-width="3" stroke-opacity="0.35"/>
  <rect x="74" y="78" width="1052" height="474" rx="34" fill="#0f172a" fill-opacity="0.68" stroke="#93c5fd" stroke-opacity="0.22"/>
  <rect x="118" y="124" width="118" height="118" rx="26" fill="#2563eb"/>
  <path d="M150 182h54M150 206h38M150 158h54" stroke="#fff" stroke-width="12" stroke-linecap="round"/>
  <circle cx="218" cy="218" r="11" fill="#67e8f9"/>
  <text x="272" y="170" fill="#bfdbfe" font-family="Arial, Helvetica, sans-serif" font-size="30" font-weight="700" letter-spacing="3">MC.MERILL.NET</text>
  <text x="118" y="324" fill="#ffffff" font-family="Arial, Helvetica, sans-serif" font-size="68" font-weight="800">Microsoft 365</text>
  <text x="118" y="402" fill="#ffffff" font-family="Arial, Helvetica, sans-serif" font-size="68" font-weight="800">Message Center Archive</text>
  <text x="122" y="470" fill="#cbd5e1" font-family="Arial, Helvetica, sans-serif" font-size="31">Message Center messages and Roadmap posts for reference</text>
</svg>
